<?xml version="1.0" encoding="UTF-8"?>
<svg xmlns="http://www.w3.org/2000/svg" height="33" width="33" class="pyqrcode"><path stroke="#000" class="pyqrline" d="M4 4.5h7m1 0h1m1 0h1m1 0h1m1 0h2m2 0h7m-25 1h1m5 0h1m2 0h3m1 0h1m2 0h1m1 0h1m5 0h1m-25 1h1m1 0h3m1 0h1m1 0h1m1 0h1m3 0h1m3 0h1m1 0h3m1 0h1m-25 1h1m1 0h3m1 0h1m3 0h2m2 0h1m3 0h1m1 0h3m1 0h1m-25 1h1m1 0h3m1 0h1m1 0h2m2 0h1m1 0h1m3 0h1m1 0h3m1 0h1m-25 1h1m5 0h1m3 0h2m4 0h1m1 0h1m5 0h1m-25 1h7m1 0h1m1 0h1m1 0h1m1 0h1m1 0h1m1 0h7m-17 1h4m1 0h1m1 0h1m-11 1h2m2 0h1m1 0h6m1 0h1m1 0h1m1 0h1m1 0h1m-24 1h4m3 0h1m1 0h1m1 0h2m5 0h3m-22 1h5m1 0h2m1 0h1m1 0h1m2 0h4m2 0h2m1 0h2m-20 1h1m2 0h1m1 0h1m1 0h1m3 0h1m1 0h1m2 0h1m1 0h2m-24 1h2m1 0h1m1 0h2m4 0h2m1 0h1m2 0h1m2 0h1m2 0h1m-25 1h2m1 0h1m4 0h1m2 0h4m4 0h1m1 0h2m-23 1h1m5 0h4m3 0h9m1 0h2m-25 1h1m3 0h1m4 0h2m2 0h2m1 0h1m1 0h2m1 0h2m1 0h1m-25 1h1m2 0h1m1 0h3m1 0h1m1 0h1m1 0h10m-15 1h3m1 0h2m2 0h1m3 0h3m1 0h1m-25 1h7m4 0h2m1 0h3m1 0h1m1 0h1m3 0h1m-25 1h1m5 0h1m1 0h1m2 0h1m1 0h1m1 0h2m3 0h1m3 0h1m-25 1h1m1 0h3m1 0h1m2 0h2m5 0h8m-24 1h1m1 0h3m1 0h1m2 0h1m1 0h1m1 0h1m4 0h1m3 0h1m1 0h1m-25 1h1m1 0h3m1 0h1m3 0h4m2 0h1m2 0h1m1 0h1m2 0h1m-25 1h1m5 0h1m2 0h1m8 0h4m2 0h1m-25 1h7m2 0h1m1 0h2m2 0h2m1 0h1m1 0h1m3 0h1"/></svg>
